<?xml version="1.0" encoding="utf-8"?><!-- Uploaded to: SVG Repo, www.svgrepo.com, Generator: SVG Repo Mixer Tools -->
<svg fill="#000000" width="800px" height="800px" viewBox="0 0 24 24" id="file-done-2" data-name="Flat Color" xmlns="http://www.w3.org/2000/svg" class="icon flat-color"><path id="primary" d="M17.71,6.29l-4-4A1,1,0,0,0,13,2H4A2,2,0,0,0,2,4V20a2,2,0,0,0,2,2h8.42A5,5,0,0,1,16,15.11a5,5,0,0,1,2,0s0,0,0,0V7A1,1,0,0,0,17.71,6.29Z" style="fill: rgb(0, 0, 0);"></path><path id="secondary" d="M17,22a1,1,0,0,1-.71-.29l-2-2a1,1,0,0,1,1.42-1.42L17,19.59l3.29-3.3a1,1,0,0,1,1.42,1.42l-4,4A1,1,0,0,1,17,22Zm-6-9a1,1,0,0,0-1-1H6a1,1,0,0,0,0,2h4A1,1,0,0,0,11,13Zm4-4a1,1,0,0,0-1-1H6a1,1,0,0,0,0,2h8A1,1,0,0,0,15,9Z" style="fill: rgb(44, 169, 188);"></path></svg>