<?xml version="1.0" encoding="UTF-8"?>
<!DOCTYPE svg PUBLIC "-//W3C//DTD SVG 1.1//EN" "http://www.w3.org/Graphics/SVG/1.1/DTD/svg11.dtd">
<svg xmlns="http://www.w3.org/2000/svg" version="1.1" width="208px" height="156px" style="shape-rendering:geometricPrecision; text-rendering:geometricPrecision; image-rendering:optimizeQuality; fill-rule:evenodd; clip-rule:evenodd" xmlns:xlink="http://www.w3.org/1999/xlink">
<g><path style="opacity:1" fill="#fcfcfc" d="M -0.5,-0.5 C 68.8333,-0.5 138.167,-0.5 207.5,-0.5C 207.5,51.5 207.5,103.5 207.5,155.5C 138.167,155.5 68.8333,155.5 -0.5,155.5C -0.5,103.5 -0.5,51.5 -0.5,-0.5 Z"/></g>
<g><path style="opacity:1" fill="#0b0b0b" d="M 80.5,114.5 C 78.4855,113.076 76.1522,112.41 73.5,112.5C 59.2949,107.815 48.7949,98.8153 42,85.5C 41.3333,83.1667 41.3333,80.8333 42,78.5C 62.037,48.4943 87.8703,42.3276 119.5,60C 126.427,64.9249 131.927,71.0915 136,78.5C 136.667,81.1667 136.667,83.8333 136,86.5C 123.29,107.105 104.79,116.439 80.5,114.5 Z"/></g>
<g><path style="opacity:1" fill="#f0f0f0" d="M 78.5,59.5 C 98.9888,56.8342 115.155,63.8342 127,80.5C 127.667,81.8333 127.667,83.1667 127,84.5C 116.19,100.653 101.024,107.819 81.5,106C 69.0443,103.363 59.211,96.8627 52,86.5C 50.6986,84.6354 50.3653,82.6354 51,80.5C 57.7398,70.2528 66.9065,63.2528 78.5,59.5 Z"/></g>
<g><path style="opacity:1" fill="#0f0f0f" d="M 85.5,60.5 C 107.22,62.709 114.387,74.0424 107,94.5C 97.3121,106.132 86.3121,107.466 74,98.5C 65.1717,87.4602 65.3384,76.6269 74.5,66C 77.9905,63.588 81.6571,61.7547 85.5,60.5 Z"/></g>
<g><path style="opacity:1" fill="#e8e8e8" d="M 84.5,67.5 C 99.8832,67.3737 105.717,74.7071 102,89.5C 94.4127,99.2395 86.0793,99.9062 77,91.5C 71.684,80.8927 74.184,72.8927 84.5,67.5 Z"/></g>
<g><path style="opacity:1" fill="#0e0e0e" d="M 86.5,72.5 C 98.6812,72.8673 102.181,78.534 97,89.5C 86.1884,95.677 80.0217,92.677 78.5,80.5C 85.5,82.1667 88.1667,79.5 86.5,72.5 Z"/></g>
<g><path style="opacity:1" fill="#121212" d="M 78.5,10.5 C 99.8359,10.3334 121.169,10.5 142.5,11C 152.637,20.1363 162.47,29.6363 172,39.5C 172.667,71.8333 172.667,104.167 172,136.5C 170.199,139.163 167.699,140.997 164.5,142C 135.5,142.667 106.5,142.667 77.5,142C 74.6193,140.749 72.786,138.583 72,135.5C 71.5012,131.514 71.3345,127.514 71.5,123.5C 74.1194,123.232 76.6194,123.565 79,124.5C 79.498,127.482 79.6646,130.482 79.5,133.5C 107.833,133.5 136.167,133.5 164.5,133.5C 164.5,103.833 164.5,74.1667 164.5,44.5C 157.825,44.6663 151.158,44.4996 144.5,44C 142.19,42.3626 140.69,40.196 140,37.5C 139.501,31.5092 139.334,25.5092 139.5,19.5C 119.5,19.5 99.5,19.5 79.5,19.5C 79.5,26.8333 79.5,34.1667 79.5,41.5C 76.8333,41.5 74.1667,41.5 71.5,41.5C 71.3336,33.16 71.5003,24.8267 72,16.5C 73.4936,13.6865 75.6603,11.6865 78.5,10.5 Z"/></g>
<g><path style="opacity:1" fill="#5e5e5e" d="M 73.5,112.5 C 76.1522,112.41 78.4855,113.076 80.5,114.5C 77.8478,114.59 75.5145,113.924 73.5,112.5 Z"/></g>
</svg>
